<svg id="Capa_1" enable-background="new 0 0 512 512" height="512" viewBox="0 0 512 512" width="512" xmlns="http://www.w3.org/2000/svg"><g><g><path d="m406 512h-300c-8.291 0-15-6.709-15-15v-362c0-8.291 6.709-15 15-15h300c8.291 0 15 6.709 15 15v362c0 8.291-6.709 15-15 15z" fill="#ff641a"/></g><path d="m256 512h150c8.291 0 15-6.709 15-15v-362c0-8.291-6.709-15-15-15h-150z" fill="#f03800"/><g id="Trash_2_"><path d="m436 60h-105v-15c0-24.814-20.186-45-45-45h-60c-24.814 0-45 20.186-45 45v15h-105c-8.291 0-15 6.709-15 15s6.709 15 15 15h360c8.291 0 15-6.709 15-15s-6.709-15-15-15zm-225-15c0-8.276 6.724-15 15-15h60c8.276 0 15 6.724 15 15v15h-90z" fill="#4a696f"/><g><path d="m256 421c-8.291 0-15-6.709-15-15v-180c0-8.291 6.709-15 15-15s15 6.709 15 15v180c0 8.291-6.709 15-15 15z" fill="#4a696f"/></g><g><path d="m346 421c-8.291 0-15-6.709-15-15v-180c0-8.291 6.709-15 15-15s15 6.709 15 15v180c0 8.291-6.709 15-15 15z" fill="#293939"/></g><g><path d="m166 421c-8.291 0-15-6.709-15-15v-180c0-8.291 6.709-15 15-15s15 6.709 15 15v180c0 8.291-6.709 15-15 15z" fill="#4a696f"/></g></g><g fill="#293939"><path d="m436 60h-105v-15c0-24.814-20.186-45-45-45h-30v30h30c8.276 0 15 6.724 15 15v15h-45v30h180c8.291 0 15-6.709 15-15s-6.709-15-15-15z"/><path d="m271 406v-180c0-8.291-6.709-15-15-15v210c8.291 0 15-6.709 15-15z"/></g></g></svg>